<svg xmlns="http://www.w3.org/2000/svg" width="500" height="500" fill="none"><style>@media (prefers-color-scheme:dark){.a{fill:#f0f0f0}}</style><path class="a" fill="#212020" d="M189.266 383.932s48.118-.517 60.014-3.297c0 0-30.104 14.806-58.897 19.542l-12.414-6.595z"/><path class="a" fill="#212020" d="M119.671 376.82c-15.004 5.593-54.673 5.415-54.673 5.415 39.151 13.367 72.784 13.885 72.784 13.885 58.978 40.102 146.247 29.434 146.247 29.434l.259-1.762c-9.484 1.519-29.052-2.295-29.052-2.295-15.278-1.019-28.21-6.353-28.21-6.353l-4.645.259-4.144-1.261-5.697-2.036-17.852-6.854-21.736-13.448 9.322-7.872 1.813-.258 6.458-5.076 2.589-.76 6.733-5.576s3.108-4.833 9.825-7.112c16.298-10.668 41.87-36.045 41.87-36.045l-2.282.258c-13.968 10.652-42.955 23.599-42.955 23.599l-1.02 3.815-2.589-2.037c-8.287 4.817-41.919 12.188-41.919 12.188l-2.849 2.279c-9.047 1.018-17.593-.76-17.593-.76-43.457-25.393-63.38-100.522-63.38-100.522s4.66 37.564 11.394 48.491c2.848 19.025 31.302 60.404 31.302 60.404"/><path class="a" fill="#212020" d="m109.83 372.003-10.86-12.446-21.995-6.094s12.689 12.948 22.513 18.54zm32.856-10.91-9.307-7.613s11.378-43.675 18.629-63.217c.259 33.766 0 40.102 0 40.102l-1.812 1.52 1.926 3.313 1.44 18.282zm-1.036 43.399 13.984 8.632s6.975 20.302 8.529 24.876c-9.047-10.927-26.64-30.21-26.64-30.21zm5.956-232.515s-7.251 12.688-12.673 18.281c-12.414 21.061-24.844 48.734-29.23 76.147-3.625-4.816 8.788-52.289 24.31-77.683-8.271-6.336-20.96 1.536-26.123 6.353-10.358 5.334-23.031 19.542-29.505 30.468-6.458 10.911-16.04 40.862-16.04 40.862v-5.592s13.726-65.997 69.078-88.836c4.144-12.446 16.04-31.229 16.04-31.229s-18.629 2.037-21.721 4.073c-3.625-8.13-4.92-13.706-4.92-13.706l6.733-7.63-15.538 1.536-7.752-6.094 9.565-9.149-13.45 9.392S71.035 108.776 33 106.998c22.254-12.187 56.647-18.281 130.127-8.13 8.546 9.65 16.04 12.187 16.04 12.187v1.52s28.712.258 37.258 5.592c8.529 5.318 8.286 14.208 8.286 14.208s3.351 2.797 2.833 8.89l4.402 5.836v1.26l-9.824-4.315s-8.546.258-18.888-2.781c-11.394 6.337-12.673 8.373-12.673 8.373s-28.728 17.764-42.955 22.339" /><path class="a" fill="#212020" d="M102.078 134.412h6.457l2.072 10.652s-30.978 30.743-37.76 61.681c.26-32.489 23.274-62.942 29.231-72.333m85.634-28.432s-11.394-10.005-19.405-10.458c-1.036-9.343-12.673-15.937-40.625-23.05 18.37-4.057 53.038 5.335 74.516 19.801-3.108 13.448-4.143 13.448-14.486 13.707m5.94-34.461s74.516-26.719 143.852 5.01c-7.25 1.019-73.479-11.67-123.928 5.335-12.414-6.595-19.924-10.345-19.924-10.345m132.474 202.419s-13.109.679-23.808 3.717l-5.179-2.36v4.058s-21.72 1.681-34.83 29.434c-10.698 3.394-20.361 6.094-20.361 6.094s-1.715-4.736-9.662-7.096c0 0 1.861-2.667 3.415-2.797-6.604-2.537-12.414-12.058-12.414-12.058s7.753 5.464 17.706 5.076c-5.163-3.427-7.882-8.891-7.882-8.891s8.4 3.185 13.968 3.944c-2.719-3.297-3.626-6.724-3.626-6.724s8.417 2.91 11.265 1.778c2.46-2.036 3.626-2.295 3.626-2.295l2.185 1.277.647-2.538s8.546-3.976 10.876-11.007c-.777-24.666-1.036-35.076 5.293-46.358-8.141-3.346-11.929-5.884-11.929-5.884l-2.249-5.075s-4.532-2.214-9.938-2.538l-.243-3.216-2.233 2.02-8.805-.84-1.197-1.18-2.59 1.18s-10.957-.841-14.874.339c-2.897 2.538-3.577 3.896-3.577 3.896s-7.429 3.717-7.591 5.754c-.178 2.02 1.198 9.132 1.198 9.132s-3.787-.501-6.555-3.895c-3.965 5.415-2.072 11.169-2.072 11.169s-6.894-2.877-9.484-7.952c-.34 10.15 8.805 21.497 14.324 25.053-7.429 3.201-24.844-13.044-28.632-20.479-4.839-.501-8.286 2.877-8.286 2.877s-.178-9.132-7.235-17.602c-7.073-8.454-8.966-18.104-8.966-18.104s4.645.679 8.966-1.357c4.305-2.021 9.128-1.859 13.79-1.358 4.661.517 22.772-9.812 22.772-9.812h2.59s14.485-8.292 19.308-8.453c4.84-.178 27.725 1.859 27.725 1.859l8.497-14.047s-13.967 4.235-18.791 12.01c-8.464-.34-9.84-.34-9.84-.34s1.91-9.472 6.911-14.207 20.684-19.3 28.097-21.838c7.429-2.537 13.806-5.754 18.807-8.114 5.001-2.376 15.165-5.415 30.007-9.472 8.287-2.376 17.755-15.582 22.254-19.639 4.484-4.073 22.757-28.432 28.454-39.1 11.734 23.534 17.771 38.082 16.913 43.157-2.768 7.112-2.59 9.989-2.59 9.989l1.376 3.217 1.295.679s14.226 7.775 16.298 9.472c2.056 1.697 5.519 5.576 5.519 5.576l3.27.34 12.252 10.328 2.751-.501 20.879 19.284-1.036 3.734s7.591 6.756 8.788 10.49c-.34 2.861 0 3.879 0 3.879l3.804 2.716 1.036 4.736 3.107 3.216v4.397s6.539 11.169 6.377 20.14c-9.84-14.046-21.396-31.309-33.47-27.915l-1.554 3.879-5.859 2.554s15.343 8.793 24.844 25.2l-.696 1.697s8.626 9.649 7.93 20.819c-5.68-1.698-10.342-1.698-10.342-1.698s8.109 2.7 9.825 6.595l-1.198 2.376s3.269-.339 3.269 12.01c0 12.365-.518 19.801-1.893 20.48-1.376.678-4.144 1.697-4.144 1.697s2.412 2.699 2.072 8.631c-.34 5.916-4.823 10.313-4.823 10.313s.34 2.554-1.214 6.95l-2.59-.517s-3.107 34.008-49.332 67.855c11.217-15.048 18.807-36.885 18.807-49.073-1.035-4.817-4.661-7.613-4.661-7.613s-19.131 5.075-25.864 18.281c-6.732 13.19-27.951 32.91-40.624 38.405-13.191 2.716-51.986 0-51.986 0s32.338-10.749 34.668-15.808c5.681-.258 15.263-9.407 16.541-12.446 1.295-3.039 5.438-11.929 5.438-11.929l-3.625-14.725 13.984-10.911 6.717-9.649s-30.525 20.56-47.859 23.098l9.047-11.412.275-5.334 5.681-5.334-1.813-5.835 2.331-3.815-.777-4.057 1.554-2.796-1.295-6.595 8.028-15.226-8.546 7.096s-2.33-18.023-4.92-24.359c-2.574-6.353-14.227-14.224-15.521-18.281-1.295-4.058-12.285-13.206-12.285-17.635-3.237 7.613-.906 14.337 7.121 20.302 11.508 10.021 19.52 17.085 18.888 35.835" /><path class="a" fill="#212020" d="M409.253 334.002c-5.698 5.253-11.557 17.942-16.736 30.469s-13.449 21.999-28.113 34.009c-14.664 12.025-31.399 17.764-43.813 22.338s-17.237 5.075-17.237 5.075 22.076-16.406 27.757-31.81c19.503-7.274 26.398-11.686 36.918-21.999 10.521-10.312 29.829-44.337 41.224-38.082" /></svg>
